<?xml version="1.0" encoding="utf-8"?>
<svg version="1.1" id="Layer_1" xmlns="http://www.w3.org/2000/svg" xmlns:xlink="http://www.w3.org/1999/xlink" x="0px" y="0px"
	 viewBox="0 0 640 640" style="enable-background:new 0 0 640 640;" xml:space="preserve">
<path id="XMLID_56_" d="M368,128.3c14.8-13,24.8-32,24.8-53.3c0-39-31.4-70.7-70.4-70.7S251.8,36,251.8,75.1
	c0,21,8.7,39.8,23.2,52.8C158.8,149.3,70,251.4,70,373.8v175c0,48.7,40.6,88.2,89.3,88.2h323.5c48.7,0,86.2-39.5,86.2-88.2v-175
	C569,252.3,483,150.8,368,128.3z M487.4,309.3c-25.6,6.4-66.9,1.3-132.5-38.4c-53.2-32.2-92.7-46.9-121.4-52.6
	c25.9-14.6,55.7-23,87.5-23C396.7,195.3,461.5,242.7,487.4,309.3z"/>
	<style>
        path { fill: #000; }
        @media (prefers-color-scheme: dark) {
            path { fill: #FFF; }
        }
    </style>
</svg>
