<?xml version="1.0" encoding="utf-8"?>
<!-- Generator: Adobe Illustrator 19.0.0, SVG Export Plug-In . SVG Version: 6.00 Build 0)  -->
<svg version="1.1" id="Layer_1" xmlns="http://www.w3.org/2000/svg" xmlns:xlink="http://www.w3.org/1999/xlink" x="0px" y="0px"
	 viewBox="0 0 195 247" style="enable-background:new 0 0 195 247;" xml:space="preserve">
<path id="XMLID_4_" class="st0" fill="#9FCDA0" d="M37.7,86.9c0,0,16.6-16.5,72.9,17.6s66.3,2.2,66.3,2.2l6,67.7L16,171l2.1-50.4L37.7,86.9z"/>
<path id="XMLID_5_" class="st1" fill="#043F32" d="M22.5,116.3c0,0,24.8-9.7,72.2,15.5s87.9,8.4,87.9,8.4v53l-167.9-12L22.5,116.3z"/>
<path id="XMLID_3_" class="st2" fill="#80C3E8" d="M24.9,180.8c0,0,15.9-34.3,75.3-17s85.7-10.2,85.7-10.2l-3.1,63.5l-164,7.7l-3.4-30.2L24.9,180.8
	z"/>
<path id="XMLID_8_" class="st3" fill="#50A4C9" d="M16.1,218.8c0,0,41.5-32.9,91.9-23.9c50.4,9,76.9-11.9,76.9-11.9l-6.2,42.1l-155.2,7.1
	L16.1,218.8z"/>
<path id="XMLID_1_" class="st4" fill="none" stroke="#9FCDA0" stroke-width="28" stroke-miterlimit="10" d="M160.1,232.2H35c-11.2,0-20.3-9.1-20.3-20.3v-67.7c0-45.8,37.1-82.8,82.8-82.8h0
	c45.8,0,82.8,37.1,82.8,82.8v67.7C180.4,223.1,171.3,232.2,160.1,232.2z"/>
<circle id="XMLID_7_" class="st5" fill="#9FCDA0" cx="98.1" cy="28.8" r="27.3"/>
</svg>
