<?xml version="1.0" encoding="utf-8"?>
<!-- Generator: Adobe Illustrator 19.0.0, SVG Export Plug-In . SVG Version: 6.00 Build 0)  -->
<svg version="1.1" id="Layer_1" xmlns="http://www.w3.org/2000/svg" xmlns:xlink="http://www.w3.org/1999/xlink" x="0px" y="0px"
	 viewBox="0 0 566 129" style="enable-background:new 0 0 566 129;" xml:space="preserve">
<g id="XMLID_3_">
	<path id="XMLID_4_" fill="currentColor" d="M0.1,28.1V7.4h82.2v20.7H53.8V102H28.5V28.1H0.1z"/>
	<path id="XMLID_6_" fill="currentColor" d="M115.9,103.3c-7.6,0-14.1-1.5-19.6-4.4c-5.5-2.9-9.7-7.1-12.6-12.6c-2.9-5.5-4.4-12-4.4-19.6
		c0-7.3,1.5-13.7,4.4-19.2c3-5.5,7.1-9.7,12.5-12.8c5.4-3,11.7-4.6,19.1-4.6c5.4,0,10.2,0.8,14.5,2.5c4.3,1.7,8,4.1,11.1,7.2
		c3.1,3.2,5.4,7,7.1,11.5c1.7,4.5,2.5,9.6,2.5,15.2v5.9H87.3v-14h39.9c0-2-0.5-3.8-1.5-5.4c-1-1.6-2.3-2.8-4-3.6
		c-1.7-0.9-3.6-1.3-5.7-1.3c-2.1,0-4,0.4-5.7,1.3c-1.7,0.9-3.1,2.1-4.1,3.6c-1,1.5-1.6,3.3-1.6,5.4v15.1c0,2.3,0.5,4.3,1.4,6.1
		c1,1.8,2.3,3.2,4.1,4.2c1.8,1,3.9,1.5,6.5,1.5c1.8,0,3.4-0.2,4.8-0.7c1.5-0.5,2.7-1.2,3.8-2.1c1-0.9,1.8-2.1,2.3-3.4h23.3
		c-0.8,4.9-2.7,9.2-5.7,12.8c-3,3.6-6.9,6.4-11.8,8.4C128.2,102.3,122.4,103.3,115.9,103.3z"/>
	<path id="XMLID_8_" fill="currentColor" d="M160.9,102V31.1h24.7v13.5h0.7c1.3-5,3.3-8.6,6.2-10.9c2.8-2.3,6.1-3.5,9.9-3.5c1.1,0,2.2,0.1,3.3,0.3
		c1.1,0.2,2.1,0.4,3.2,0.7v21.7c-1.3-0.4-2.8-0.8-4.7-1c-1.8-0.2-3.4-0.3-4.8-0.3c-2.5,0-4.7,0.6-6.7,1.7c-2,1.1-3.5,2.7-4.7,4.7
		c-1.1,2-1.7,4.4-1.7,7.1V102H160.9z"/>
	<path id="XMLID_10_" fill="currentColor" d="M217.3,102V31.1H242v13.5h0.7c1.3-5,3.3-8.6,6.2-10.9c2.8-2.3,6.1-3.5,9.9-3.5c1.1,0,2.2,0.1,3.3,0.3
		c1.1,0.2,2.1,0.4,3.2,0.7v21.7c-1.3-0.4-2.8-0.8-4.7-1c-1.8-0.2-3.4-0.3-4.8-0.3c-2.5,0-4.7,0.6-6.7,1.7c-2,1.1-3.5,2.7-4.7,4.7
		c-1.1,2-1.7,4.4-1.7,7.1V102H217.3z"/>
	<path id="XMLID_12_" fill="currentColor" d="M290,103.1c-4.5,0-8.5-0.7-12-2.2c-3.5-1.5-6.2-3.8-8.1-6.8c-2-3-3-6.9-3-11.6c0-3.9,0.7-7.2,2-9.9
		c1.3-2.8,3.2-5,5.5-6.8c2.4-1.8,5.1-3.1,8.3-4c3.2-0.9,6.6-1.5,10.2-1.8c4-0.3,7.2-0.7,9.6-1.1c2.4-0.4,4.2-1.1,5.2-1.9
		c1.1-0.8,1.6-1.9,1.6-3.3v-0.2c0-1.8-0.7-3.3-2.1-4.2c-1.4-1-3.2-1.5-5.4-1.5c-2.4,0-4.4,0.5-5.9,1.6c-1.5,1.1-2.4,2.7-2.7,4.9
		h-23.5c0.3-4.3,1.7-8.3,4.1-11.9s6-6.6,10.7-8.8c4.7-2.2,10.6-3.3,17.6-3.3c5.1,0,9.6,0.6,13.7,1.8c4,1.2,7.5,2.8,10.3,4.9
		c2.8,2.1,5,4.6,6.5,7.4c1.5,2.8,2.2,5.9,2.2,9.2V102h-23.8V92h-0.6c-1.4,2.6-3.1,4.8-5.1,6.4c-2,1.6-4.3,2.8-6.9,3.6
		C295.9,102.7,293.1,103.1,290,103.1z M298.3,87c1.9,0,3.8-0.4,5.5-1.2c1.7-0.8,3.1-2,4.2-3.5c1.1-1.5,1.6-3.3,1.6-5.5V71
		c-0.7,0.3-1.4,0.5-2.1,0.8c-0.8,0.2-1.6,0.5-2.4,0.7c-0.8,0.2-1.7,0.4-2.7,0.6c-0.9,0.2-1.9,0.4-2.9,0.5c-2,0.3-3.6,0.8-4.8,1.5
		s-2.2,1.5-2.8,2.5c-0.6,1-0.9,2.1-0.9,3.3c0,2,0.7,3.5,2.1,4.5C294.4,86.5,296.2,87,298.3,87z"/>
	<path id="XMLID_15_" fill="currentColor" d="M347.1,102V31.1h24.7v13.5h0.7c1.3-5,3.3-8.6,6.2-10.9c2.8-2.3,6.1-3.5,9.9-3.5c1.1,0,2.2,0.1,3.3,0.3
		c1.1,0.2,2.1,0.4,3.2,0.7v21.7c-1.3-0.4-2.8-0.8-4.7-1c-1.8-0.2-3.4-0.3-4.8-0.3c-2.5,0-4.7,0.6-6.7,1.7c-2,1.1-3.5,2.7-4.7,4.7
		c-1.1,2-1.7,4.4-1.7,7.1V102H347.1z"/>
	<path id="XMLID_17_" fill="currentColor" d="M403.4,102V31.1h25.5V102H403.4z M416.2,23.7c-3.5,0-6.4-1.1-8.9-3.4c-2.5-2.3-3.7-5-3.7-8.2
		c0-3.2,1.2-5.9,3.7-8.2c2.5-2.3,5.4-3.4,8.9-3.4c3.5,0,6.4,1.1,8.9,3.4c2.4,2.3,3.7,5,3.7,8.2c0,3.2-1.2,5.9-3.7,8.2
		C422.6,22.6,419.6,23.7,416.2,23.7z"/>
	<path id="XMLID_20_" fill="currentColor" d="M484.1,31.1v18.5h-46.7V31.1H484.1z M446.4,14.1h25.5v65.1c0,1,0.2,1.8,0.5,2.5c0.3,0.7,0.9,1.2,1.6,1.5
		s1.6,0.5,2.7,0.5c0.8,0,1.7-0.1,2.7-0.3c1-0.2,1.8-0.3,2.3-0.5l3.7,17.9c-1.1,0.3-2.8,0.8-4.9,1.2c-2.1,0.5-4.6,0.8-7.5,1
		c-5.8,0.3-10.8-0.3-14.7-1.8c-4-1.5-7-3.9-9-7.2c-2-3.3-3-7.4-2.9-12.4V14.1z"/>
	<path id="XMLID_23_" fill="currentColor" d="M509.9,128.6c-2.9,0-5.7-0.2-8.4-0.7c-2.6-0.4-5-1.1-7-1.8l5.5-18.1c2.1,0.7,4,1.2,5.7,1.4
		c1.7,0.2,3.2,0.1,4.5-0.4c1.2-0.5,2.1-1.3,2.7-2.6l0.6-1.3l-24.9-74h26.6l11.4,49.1h0.7l11.6-49.1h26.8L540,107.9
		c-1.3,3.9-3.2,7.4-5.6,10.5c-2.4,3.1-5.7,5.6-9.6,7.4C520.8,127.7,515.9,128.6,509.9,128.6z"/>
</g>
</svg>
